<?xml version="1.0" encoding="UTF-8"?><svg xmlns="http://www.w3.org/2000/svg" viewBox="0 0 504.01 588"><defs><style>.d{fill:#d59c9a;}</style></defs><g id="a"/><g id="b"><g id="c"><path class="d" d="M498.7,196.05c-3.98-4.49-9.7-7.05-15.7-7.05h-105v-63C378,56.52,321.48,0,252,0S126,56.52,126,126v63H21c-6,0-11.72,2.56-15.7,7.05-3.99,4.49-5.87,10.47-5.16,16.43l35.76,300.79c4.73,42.6,40.62,74.73,83.49,74.73H384.62c42.87,0,78.76-32.13,83.47-74.57l35.78-300.95c.71-5.96-1.17-11.94-5.16-16.43ZM168,126c0-46.32,37.68-84,84-84s84,37.68,84,84v63H168v-63Zm-21,147c-11.6,0-21-9.4-21-21s9.4-21,21-21,21,9.4,21,21-9.4,21-21,21Zm210,0c-11.6,0-21-9.4-21-21s9.4-21,21-21,21,9.4,21,21-9.4,21-21,21Z"/></g></g></svg>